<svg width="0" height="0" class="hidden">
  <symbol xmlns="http://www.w3.org/2000/svg" fill="" viewBox="0 0 24 24" id="add_black_24dp">
    <path d="M0 0h24v24H0z" fill="none"></path>
    <path d="M19 13h-6v6h-2v-6H5v-2h6V5h2v6h6v2z"></path>
  </symbol>
  <symbol xmlns="http://www.w3.org/2000/svg" fill="" viewBox="0 0 24 24" id="date_range_black_24dp">
    <path d="M0 0h24v24H0z" fill="none"></path>
    <path d="M9 11H7v2h2v-2zm4 0h-2v2h2v-2zm4 0h-2v2h2v-2zm2-7h-1V2h-2v2H8V2H6v2H5c-1.11 0-1.99.9-1.99 2L3 20c0 1.1.89 2 2 2h14c1.1 0 2-.9 2-2V6c0-1.1-.9-2-2-2zm0 16H5V9h14v11z"></path>
  </symbol>
  <symbol xmlns="http://www.w3.org/2000/svg" fill="" viewBox="0 0 24 24" id="delete_black_24dp">
    <path d="M0 0h24v24H0z" fill="none"></path>
    <path d="M6 19c0 1.1.9 2 2 2h8c1.1 0 2-.9 2-2V7H6v12zM19 4h-3.5l-1-1h-5l-1 1H5v2h14V4z"></path>
  </symbol>
  <symbol xmlns="http://www.w3.org/2000/svg" fill="" viewBox="0 0 24 24" id="done_black_24dp">
    <path d="M0 0h24v24H0z" fill="none"></path>
    <path d="M9 16.2L4.8 12l-1.4 1.4L9 19 21 7l-1.4-1.4L9 16.2z"></path>
  </symbol>
  <symbol xmlns="http://www.w3.org/2000/svg" fill="" viewBox="0 0 24 24" id="edit_black_24dp">
    <path d="M0 0h24v24H0z" fill="none"></path>
    <path d="M3 17.25V21h3.75L17.81 9.94l-3.75-3.75L3 17.25zM20.71 7.04c.39-.39.39-1.02 0-1.41l-2.34-2.34c-.39-.39-1.02-.39-1.41 0l-1.83 1.83 3.75 3.75 1.83-1.83z"></path>
  </symbol>
</svg>